<?xml version="1.0" standalone="no"?>
<!DOCTYPE svg PUBLIC "-//W3C//DTD SVG 20010904//EN"
 "http://www.w3.org/TR/2001/REC-SVG-20010904/DTD/svg10.dtd">
<svg version="1.0" xmlns="http://www.w3.org/2000/svg"
 width="1119.000000pt" height="1554.000000pt" viewBox="0 0 1119.000000 1554.000000"
 preserveAspectRatio="xMidYMid meet">
<metadata>
Created by potrace 1.10, written by Peter Selinger 2001-2011
</metadata>
<g transform="translate(0.000000,1554.000000) scale(0.100000,-0.100000)"
fill="#bd8b3f" stroke="none">
<path d="M3365 14530 c-22 -4 -62 -11 -90 -14 -64 -9 -175 -32 -295 -63 -52
-13 -115 -29 -140 -35 -25 -5 -49 -14 -54 -19 -6 -5 -17 -9 -25 -9 -9 0 -29
-7 -45 -15 -15 -8 -33 -15 -38 -15 -10 0 -50 -16 -113 -45 -16 -8 -93 -43
-170 -78 -77 -35 -161 -77 -185 -92 -113 -70 -324 -244 -355 -292 -19 -29 -19
-17 -5 -223 6 -91 14 -253 18 -360 5 -133 11 -195 18 -195 6 0 38 24 70 54 48
43 233 172 399 276 105 66 425 223 530 260 126 45 146 52 152 59 3 3 17 6 29
6 13 0 41 6 61 14 101 36 249 69 383 86 322 39 603 12 835 -81 294 -118 434
-219 646 -469 25 -29 139 -203 160 -242 42 -81 119 -241 119 -247 0 -10 38
-108 51 -133 5 -10 9 -27 9 -38 0 -10 6 -34 14 -52 8 -18 22 -62 31 -98 9 -36
23 -88 30 -115 8 -28 19 -100 25 -160 14 -153 37 -375 50 -469 5 -43 7 -95 4
-115 -2 -20 -6 -88 -8 -151 -7 -236 -39 -585 -71 -771 -8 -47 -15 -96 -15
-109 0 -12 -7 -45 -16 -74 -30 -94 -37 -121 -45 -156 -13 -60 -36 -150 -74
-295 -20 -77 -41 -156 -45 -175 -20 -82 -39 -147 -49 -173 -6 -16 -11 -41 -11
-56 0 -15 -4 -31 -10 -37 -5 -5 -14 -30 -19 -54 -6 -25 -17 -72 -25 -105 -8
-33 -21 -87 -29 -120 -13 -54 -26 -90 -59 -165 -18 -42 -36 -83 -53 -125 -9
-22 -23 -53 -30 -70 -8 -16 -28 -61 -45 -100 -17 -38 -81 -170 -143 -292 -82
-162 -119 -226 -140 -240 -30 -19 -34 -26 -105 -164 -23 -46 -58 -111 -77
-144 -19 -33 -38 -67 -41 -75 -29 -69 -52 -107 -82 -134 -64 -57 -132 -131
-132 -143 0 -7 -4 -13 -8 -13 -4 0 -24 -21 -43 -47 -72 -96 -412 -435 -535
-533 -133 -106 -357 -260 -380 -260 -4 0 -15 -6 -23 -14 -41 -37 -376 -196
-411 -196 -9 0 -25 -7 -36 -15 -10 -8 -29 -15 -41 -15 -12 0 -37 -6 -55 -14
-85 -35 -183 -50 -338 -50 -161 0 -192 6 -295 56 -69 33 -86 45 -136 94 -53
53 -60 76 -35 136 13 30 44 139 77 268 11 43 19 69 49 150 7 19 15 51 17 70 3
19 9 40 14 45 4 6 12 29 18 50 6 22 17 65 25 95 8 30 24 89 35 130 25 93 47
170 67 235 8 28 18 64 21 80 3 17 9 35 14 41 5 6 13 31 19 55 5 24 16 67 24
94 18 60 71 253 87 315 6 25 18 60 25 78 8 18 14 40 14 50 0 9 6 34 14 57 27
80 40 121 47 155 4 19 15 60 23 90 8 30 28 108 45 173 16 65 35 133 40 150 5
18 17 59 26 92 9 33 21 74 27 90 6 17 14 48 18 70 5 22 16 65 25 95 21 69 85
313 95 360 7 33 12 55 42 163 6 23 15 60 19 82 10 52 28 128 44 190 7 28 17
73 23 100 12 59 46 210 62 280 6 28 15 70 20 95 4 25 13 58 19 73 6 16 11 41
11 56 0 16 7 45 15 64 8 20 15 50 15 67 0 17 5 41 11 52 6 11 15 44 19 72 8
49 50 256 91 441 11 50 24 113 29 140 4 28 13 63 19 78 6 16 11 40 11 55 0 15
7 45 15 67 8 22 14 57 15 78 0 21 5 48 11 59 7 12 15 47 19 77 5 31 25 146 44
256 83 460 89 521 56 608 -26 68 -80 113 -127 104 -31 -5 -90 -25 -113 -38 -8
-4 -35 -18 -60 -29 -129 -62 -171 -80 -180 -80 -5 0 -36 -13 -67 -28 -55 -28
-123 -59 -243 -114 -30 -14 -66 -29 -80 -33 -14 -4 -42 -16 -62 -26 -36 -19
-38 -22 -38 -70 0 -28 -7 -105 -15 -172 -49 -403 -71 -560 -86 -627 -5 -25
-14 -77 -19 -115 -12 -90 -28 -187 -42 -248 -5 -26 -14 -76 -18 -110 -5 -34
-14 -89 -20 -122 -41 -216 -92 -506 -100 -570 -4 -33 -13 -73 -19 -88 -6 -16
-11 -44 -11 -63 0 -20 -5 -45 -11 -56 -7 -12 -15 -47 -19 -77 -8 -59 -26 -153
-41 -211 -4 -19 -18 -84 -29 -145 -36 -186 -63 -304 -96 -421 -8 -28 -14 -63
-14 -78 0 -15 -5 -37 -12 -49 -6 -12 -15 -42 -19 -67 -4 -25 -17 -83 -29 -130
-12 -47 -30 -123 -41 -170 -33 -143 -68 -273 -95 -360 -8 -25 -14 -56 -14 -70
0 -15 -4 -30 -10 -36 -5 -5 -14 -30 -19 -54 -5 -25 -30 -124 -55 -220 -25 -96
-50 -195 -57 -220 -6 -25 -18 -60 -25 -78 -8 -18 -14 -40 -14 -50 0 -9 -6 -34
-14 -57 -13 -39 -27 -84 -60 -195 -44 -150 -77 -258 -87 -285 -6 -16 -13 -39
-16 -50 -3 -11 -11 -34 -19 -52 -8 -17 -14 -40 -14 -51 0 -12 -4 -23 -9 -26
-5 -3 -20 -41 -34 -83 -14 -43 -36 -103 -47 -133 -12 -30 -25 -66 -30 -80 -21
-66 -107 -214 -151 -262 -83 -90 -150 -205 -149 -256 1 -35 36 -90 80 -125 25
-20 52 -42 60 -49 135 -116 299 -218 532 -329 51 -25 198 -79 212 -79 10 0 27
-5 39 -12 35 -18 201 -52 332 -66 86 -10 338 3 465 23 52 9 113 18 135 21 22
2 63 11 90 18 28 8 77 22 110 31 68 19 80 22 225 71 58 20 121 42 140 50 19 9
49 21 65 28 83 35 317 150 385 190 25 14 52 29 60 33 8 5 33 20 55 34 22 14
78 50 125 80 47 30 90 58 96 64 11 9 25 19 95 70 102 74 215 170 282 239 126
130 120 120 62 111 -41 -6 -64 -18 -130 -71 -241 -195 -354 -279 -474 -354
-40 -25 -87 -55 -104 -67 -18 -13 -64 -39 -104 -59 -40 -20 -77 -42 -84 -50
-6 -8 -15 -14 -20 -14 -5 0 -57 -23 -116 -51 -157 -74 -180 -84 -266 -118 -43
-17 -86 -31 -96 -31 -9 0 -21 -4 -26 -9 -23 -20 -343 -107 -430 -117 -38 -4
-81 -9 -95 -11 -34 -4 -37 -4 -195 -19 -104 -10 -163 -11 -230 -3 -156 18
-289 41 -315 53 -14 7 -56 23 -95 36 -252 82 -524 239 -703 405 l-54 51 7 58
c7 54 14 66 90 160 73 91 175 269 175 306 0 7 9 29 20 49 11 20 33 77 49 126
17 50 42 122 56 160 27 71 38 108 56 180 6 21 14 44 18 50 4 5 13 30 20 55 6
25 23 83 37 130 14 47 30 99 34 115 13 48 59 204 85 285 13 41 29 102 35 135
5 32 15 64 20 69 6 6 10 19 10 30 0 10 7 42 14 70 38 132 49 178 67 262 10 51
26 111 34 135 9 24 25 80 35 124 10 44 25 107 35 140 9 33 21 78 26 100 4 22
22 93 38 157 16 65 33 139 36 165 4 26 10 57 15 68 12 30 61 238 81 345 9 52
25 127 34 165 9 39 22 108 30 155 7 47 23 130 35 185 12 55 26 123 30 150 20
116 42 234 56 295 20 90 23 105 32 186 5 39 11 75 14 80 3 5 13 63 23 129 9
66 21 134 26 150 8 26 53 301 65 405 3 19 13 87 24 150 10 63 26 176 35 250
44 373 40 357 115 408 31 22 75 46 96 53 22 8 54 24 73 37 19 12 42 22 51 22
9 0 47 16 84 35 37 19 75 35 85 35 9 0 21 4 27 9 25 23 184 84 231 88 56 4 65
-3 83 -68 9 -30 -11 -267 -30 -359 -6 -30 -16 -80 -21 -110 -5 -30 -16 -83
-24 -117 -8 -34 -15 -75 -15 -92 0 -16 -4 -40 -9 -53 -5 -13 -14 -54 -21 -93
-7 -38 -23 -124 -37 -190 -14 -66 -29 -138 -33 -160 -4 -22 -20 -89 -35 -150
-14 -60 -28 -124 -30 -142 -2 -17 -8 -47 -13 -65 -20 -66 -32 -130 -26 -139 3
-5 1 -16 -5 -23 -6 -7 -15 -45 -21 -85 -6 -41 -13 -78 -17 -84 -3 -5 -17 -64
-30 -131 -41 -199 -43 -209 -53 -240 -10 -32 -39 -153 -84 -361 -15 -66 -31
-136 -36 -156 -6 -20 -10 -47 -10 -60 -1 -13 -8 -42 -16 -64 -9 -22 -20 -58
-24 -80 -11 -52 -53 -219 -79 -315 -11 -41 -23 -86 -26 -100 -4 -14 -10 -34
-15 -45 -5 -11 -16 -56 -26 -100 -9 -44 -22 -89 -27 -100 -6 -11 -14 -38 -18
-60 -12 -62 -98 -385 -108 -403 -5 -10 -12 -37 -16 -62 -4 -25 -13 -56 -20
-70 -6 -14 -18 -54 -25 -90 -7 -36 -19 -75 -26 -87 -8 -12 -14 -33 -14 -47 0
-14 -4 -27 -9 -30 -4 -3 -11 -25 -14 -49 -3 -24 -27 -113 -52 -198 -25 -85
-57 -194 -71 -244 -13 -49 -28 -99 -33 -110 -5 -11 -19 -60 -32 -110 -12 -49
-26 -94 -31 -99 -4 -6 -8 -18 -8 -28 0 -17 -30 -132 -75 -283 -13 -44 -33
-114 -45 -155 -12 -41 -35 -115 -50 -165 -65 -201 -85 -330 -57 -365 7 -8 19
-28 27 -44 8 -16 39 -50 68 -76 68 -60 231 -130 307 -131 28 0 82 -4 120 -8
39 -5 96 -4 130 1 113 17 170 29 216 43 26 8 56 15 68 15 11 0 35 6 53 14 18
8 65 26 103 41 39 15 79 32 90 38 11 6 43 21 70 35 28 13 57 28 65 33 8 5 22
12 30 16 8 4 38 21 65 39 28 17 61 35 75 39 14 4 61 34 106 65 44 32 92 63
105 70 95 51 568 470 569 503 0 5 21 31 48 57 26 27 70 77 97 112 28 34 85 99
129 144 75 77 136 157 136 176 0 5 15 33 34 62 18 29 37 63 41 77 4 13 17 38
30 54 12 17 26 41 30 55 4 14 21 44 36 67 16 23 29 45 29 48 0 4 23 37 52 73
29 36 84 129 124 206 39 78 78 155 88 171 16 30 87 193 151 350 18 44 42 100
53 125 11 25 28 70 37 100 9 30 20 64 25 75 5 11 11 34 15 50 3 17 10 50 15
75 5 25 14 61 19 80 5 19 15 58 21 85 7 28 20 77 30 110 34 109 63 223 81 310
6 28 16 59 23 70 7 11 18 54 25 95 7 41 17 86 22 100 4 14 11 43 15 65 4 22
11 48 16 58 5 10 13 39 18 65 4 26 15 85 24 132 20 111 56 438 66 615 24 382
22 480 -11 705 -5 36 -11 97 -14 135 -10 132 -23 220 -40 280 -10 33 -21 78
-26 100 -4 22 -14 60 -23 85 -8 25 -26 81 -40 125 -41 133 -98 256 -211 459
-112 200 -263 361 -505 537 -42 30 -240 129 -259 129 -8 0 -38 11 -67 25 -30
14 -76 30 -102 35 -27 5 -59 13 -73 19 -13 5 -50 13 -81 16 -32 4 -60 9 -62
13 -2 4 -87 8 -188 10 -197 4 -443 -17 -511 -43 -20 -8 -48 -15 -61 -15 -31 0
-288 -70 -300 -81 -6 -5 -22 -9 -37 -9 -15 0 -32 -7 -39 -15 -7 -8 -23 -15
-36 -15 -12 0 -26 -4 -29 -10 -3 -5 -14 -10 -23 -10 -21 0 -405 -193 -487
-244 -33 -21 -79 -51 -102 -67 -23 -16 -44 -29 -47 -29 -4 0 -43 -25 -88 -56
-99 -67 -120 -68 -131 -4 -11 65 -29 431 -22 458 5 20 137 162 151 162 3 0 40
26 82 59 89 68 409 230 517 261 22 6 54 17 70 25 17 7 66 23 110 36 44 12 92
29 107 36 15 7 43 13 63 13 20 0 45 5 55 10 55 29 408 68 579 64 112 -3 324
-22 366 -34 17 -4 57 -13 90 -20 33 -7 87 -19 120 -27 33 -9 76 -19 95 -24 76
-18 147 -40 185 -58 22 -10 58 -24 80 -31 22 -7 59 -23 83 -36 23 -13 50 -24
59 -24 8 0 41 -16 73 -35 32 -19 62 -35 68 -35 17 0 143 -71 182 -102 19 -15
39 -28 46 -28 6 0 21 -11 34 -25 13 -14 27 -25 32 -25 19 0 134 -99 247 -212
178 -179 198 -200 215 -234 8 -17 22 -34 31 -37 14 -6 69 -82 105 -146 8 -14
18 -28 23 -29 4 -2 16 -20 26 -40 10 -21 41 -77 70 -127 54 -95 161 -311 161
-326 0 -4 6 -23 14 -41 7 -18 24 -60 36 -93 12 -33 25 -69 30 -80 4 -11 13
-34 19 -51 7 -16 32 -50 58 -74 41 -41 50 -45 92 -44 25 1 80 8 121 17 190 42
513 85 699 95 174 9 477 4 606 -9 103 -11 217 -35 294 -63 24 -9 51 -16 60
-16 9 0 36 -11 61 -24 25 -13 57 -26 72 -30 14 -3 40 -17 56 -31 17 -14 35
-25 41 -25 18 0 136 -87 233 -172 87 -76 142 -135 191 -201 23 -32 54 -75 70
-94 15 -20 27 -40 27 -46 0 -6 6 -18 14 -26 16 -19 43 -72 89 -171 79 -172
119 -313 157 -550 54 -335 47 -518 -36 -935 -11 -56 -57 -200 -71 -220 -7 -11
-13 -31 -13 -46 0 -14 -11 -48 -25 -75 -14 -27 -30 -67 -36 -89 -5 -22 -25
-71 -43 -110 -118 -246 -176 -357 -200 -384 -9 -10 -16 -22 -16 -27 0 -15
-197 -297 -250 -357 -15 -18 -29 -37 -31 -43 -10 -30 -421 -457 -461 -480 -9
-5 -44 -35 -77 -67 -34 -31 -65 -57 -69 -57 -4 0 -32 -23 -62 -51 -30 -27 -68
-57 -85 -66 -16 -8 -53 -33 -81 -54 -28 -22 -55 -39 -60 -39 -5 0 -40 -21 -76
-47 -85 -61 -153 -103 -165 -103 -5 0 -64 -29 -131 -65 -68 -36 -128 -65 -135
-65 -7 0 -28 -11 -47 -25 -19 -14 -38 -25 -43 -25 -18 0 -70 -44 -98 -83 -34
-47 -33 -61 8 -167 23 -59 37 -93 92 -215 10 -22 28 -66 40 -97 11 -32 30 -82
41 -110 10 -29 26 -84 34 -121 9 -37 22 -80 30 -95 8 -16 14 -35 13 -42 -1
-19 9 -70 40 -190 22 -88 58 -258 83 -390 6 -30 15 -74 20 -98 6 -23 10 -58
10 -78 0 -19 4 -43 9 -53 5 -9 15 -59 21 -111 7 -52 16 -117 21 -145 8 -50 34
-246 84 -635 53 -416 75 -540 111 -617 8 -18 22 -49 32 -70 9 -20 51 -71 92
-112 158 -158 354 -210 668 -177 61 7 82 6 82 -3 0 -34 -53 -106 -153 -206
-124 -123 -204 -180 -370 -263 l-112 -56 -112 -4 c-116 -4 -201 10 -288 48
-22 9 -64 28 -94 41 -52 23 -156 117 -222 201 -34 42 -137 255 -145 299 -4 19
-10 39 -14 44 -4 6 -15 39 -25 75 -9 36 -20 81 -25 100 -15 58 -41 220 -39
238 2 9 -2 42 -9 72 -19 94 -31 272 -42 615 -5 182 -12 360 -15 396 -3 37 -8
135 -10 219 -5 186 -33 563 -45 608 -5 19 -7 39 -4 46 3 7 -7 57 -22 112 -14
54 -33 133 -41 174 -7 41 -21 95 -30 120 -36 102 -127 328 -148 370 -37 72
-101 120 -162 120 -50 0 -220 -25 -303 -43 -105 -24 -195 -33 -355 -36 -41 -1
-139 -35 -176 -61 -16 -12 -38 -38 -48 -58 -20 -41 -27 -73 -102 -447 -17 -82
-35 -168 -40 -190 -6 -22 -17 -78 -25 -125 -8 -47 -24 -121 -34 -165 -11 -44
-25 -111 -31 -150 -6 -38 -20 -106 -31 -150 -11 -44 -26 -109 -33 -145 -8 -36
-18 -81 -23 -100 -16 -56 -49 -190 -61 -250 -13 -63 -21 -90 -57 -215 -14 -49
-31 -108 -36 -130 -6 -22 -24 -85 -40 -140 -16 -55 -34 -118 -40 -140 -6 -22
-21 -62 -34 -90 -12 -27 -26 -67 -29 -88 -4 -21 -14 -44 -21 -52 -8 -7 -14
-22 -14 -33 0 -11 -8 -30 -17 -43 -10 -13 -28 -44 -41 -69 -35 -71 -156 -207
-205 -230 -88 -44 -154 -59 -282 -66 -108 -6 -267 28 -296 62 -6 8 -18 14 -26
14 -17 0 -120 85 -133 111 -10 17 2 33 165 238 19 24 35 52 35 61 0 10 7 23
16 31 9 7 23 30 31 51 8 21 19 38 24 38 5 0 9 7 9 17 0 14 13 46 71 167 11 22
19 47 19 55 0 9 9 31 20 49 11 18 20 39 20 47 0 9 4 23 9 33 27 54 51 115 51
129 0 8 15 54 33 102 32 82 49 139 83 281 9 36 22 81 29 100 7 19 21 69 30
110 10 41 26 105 36 142 11 36 19 79 19 95 0 16 6 37 14 48 7 11 16 49 19 85
4 36 11 79 16 95 6 17 15 57 22 90 7 33 30 131 51 218 41 166 54 296 31 304
-7 3 -13 -1 -13 -8 0 -7 -6 -20 -13 -28 -15 -17 -43 -96 -72 -196 -9 -33 -23
-80 -31 -105 -8 -25 -14 -55 -14 -68 0 -13 -5 -32 -11 -43 -6 -11 -14 -41 -19
-67 -16 -83 -70 -346 -81 -392 -31 -135 -90 -354 -111 -415 -5 -16 -12 -41
-15 -55 -2 -14 -8 -34 -12 -45 -5 -11 -18 -54 -31 -95 -12 -41 -29 -93 -37
-115 -18 -48 -40 -106 -60 -160 -8 -22 -21 -52 -29 -67 -8 -14 -14 -35 -14
-45 0 -10 -4 -23 -9 -29 -5 -5 -21 -38 -36 -74 -68 -165 -148 -302 -235 -403
-36 -41 -121 -108 -152 -120 -36 -13 -19 -50 49 -107 36 -30 73 -62 82 -70 70
-62 160 -110 253 -135 55 -14 93 -17 225 -12 164 5 187 9 290 59 113 54 247
218 326 398 38 85 47 109 47 117 0 5 14 52 30 104 17 52 37 119 46 149 9 30
20 66 26 79 5 14 13 43 18 65 5 23 16 66 26 96 49 163 67 233 103 395 37 166
52 228 63 270 6 22 15 58 19 80 13 68 30 139 41 173 5 19 14 57 19 85 4 29 15
84 23 122 8 39 21 106 29 150 27 141 63 316 83 402 8 34 14 76 14 93 0 17 5
41 11 53 7 11 16 59 20 105 12 115 17 122 85 122 30 0 103 6 162 14 59 8 145
19 192 25 133 17 249 38 320 56 130 34 124 35 155 -50 23 -65 43 -113 61 -148
8 -16 14 -35 14 -44 0 -8 6 -27 14 -41 37 -72 83 -226 119 -402 45 -221 60
-389 77 -860 6 -146 12 -271 15 -279 3 -8 10 -157 15 -330 4 -174 13 -354 19
-401 6 -47 18 -141 26 -210 14 -108 30 -196 75 -400 6 -24 15 -49 20 -54 6 -6
10 -18 10 -28 0 -35 88 -220 149 -313 101 -155 275 -278 446 -316 22 -5 58
-13 80 -19 100 -24 283 -7 368 36 16 8 32 14 37 14 11 0 149 82 223 132 63 43
222 196 304 293 53 62 83 102 179 242 31 46 60 83 65 83 5 0 9 11 9 25 0 14
-3 25 -7 25 -5 0 -34 -16 -66 -35 -53 -32 -107 -56 -197 -90 -104 -38 -345
-52 -449 -25 -52 14 -167 69 -183 87 -6 7 -16 13 -22 13 -18 0 -91 80 -116
125 -11 22 -25 47 -29 55 -27 49 -71 239 -71 306 0 22 -4 65 -10 95 -5 30 -16
110 -25 179 -22 187 -43 352 -61 475 -8 61 -19 146 -24 190 -5 44 -13 93 -19
108 -6 16 -11 47 -11 69 0 23 -6 67 -14 97 -13 51 -25 111 -46 231 -10 60 -48
259 -65 340 -7 36 -21 92 -30 125 -9 33 -20 78 -25 100 -4 22 -13 54 -18 70
-6 17 -18 55 -26 85 -20 69 -84 268 -95 295 -10 23 -38 85 -77 170 -15 33 -42
83 -61 111 -49 75 -43 96 30 109 20 4 40 11 43 16 3 5 13 9 23 9 10 0 24 7 31
15 7 8 19 15 27 15 23 0 271 127 382 196 56 34 154 98 231 151 30 20 193 145
200 153 3 3 28 23 55 45 180 144 494 469 647 671 51 67 198 283 198 291 0 2
11 19 24 36 13 18 30 46 38 62 8 17 46 91 84 165 81 158 115 233 144 321 12
35 25 69 30 74 4 6 10 21 13 35 5 26 23 80 39 115 34 80 91 342 114 525 25
204 11 471 -40 750 -25 134 -32 163 -44 187 -7 12 -12 31 -12 43 0 19 -27 90
-50 132 -6 10 -10 22 -10 27 0 15 -97 214 -124 254 -14 21 -26 40 -26 43 0 13
-153 205 -206 259 -125 126 -309 259 -444 319 -47 21 -97 44 -112 52 -14 8
-35 14 -45 14 -10 0 -24 5 -29 10 -6 6 -33 15 -60 20 -27 4 -67 13 -89 18
-126 32 -199 37 -525 37 -318 0 -469 -9 -640 -36 -36 -6 -94 -15 -130 -19 -36
-4 -78 -13 -93 -19 -16 -6 -39 -11 -52 -11 -26 0 -111 -24 -168 -48 -45 -18
-50 -14 -68 53 -19 74 -72 240 -85 265 -6 14 -25 54 -40 90 -110 251 -285 537
-437 715 -89 104 -313 322 -377 368 -34 24 -156 107 -210 144 -84 57 -268 153
-293 153 -7 0 -17 4 -22 9 -6 5 -35 19 -65 31 -30 12 -68 28 -85 35 -50 22
-107 42 -170 60 -33 10 -71 21 -85 26 -14 4 -68 18 -120 29 -52 12 -120 28
-151 36 -30 8 -71 14 -90 14 -19 0 -70 7 -114 15 -86 15 -456 19 -530 5z"/>
<path d="M6895 12238 c-123 -13 -339 -62 -445 -100 -48 -18 -105 -63 -131
-104 -24 -39 -26 -108 -8 -239 18 -130 21 -752 5 -955 -15 -191 -51 -463 -65
-495 -5 -11 -12 -42 -15 -70 -4 -27 -10 -63 -16 -80 -5 -16 -19 -68 -31 -115
-12 -47 -30 -110 -41 -140 -10 -30 -30 -98 -44 -150 -26 -100 -68 -231 -84
-265 -17 -37 -82 -199 -111 -275 -44 -120 -80 -203 -100 -232 -11 -14 -19 -30
-19 -34 0 -13 -211 -433 -220 -439 -5 -3 -14 -29 -21 -58 -10 -46 -9 -58 5
-85 23 -45 85 -87 164 -112 37 -12 103 -37 147 -57 217 -96 282 -128 307 -147
142 -112 243 -174 286 -175 12 -1 40 8 61 19 21 10 41 17 44 14 3 -3 27 8 53
23 55 32 85 49 164 93 73 40 86 48 147 92 29 21 56 38 61 38 10 0 122 81 180
130 21 17 80 66 132 108 52 41 142 123 200 181 107 108 291 323 317 370 8 14
43 67 79 116 35 50 75 113 88 142 14 29 38 72 53 95 16 24 44 77 63 118 18 41
37 77 42 78 4 2 8 14 8 27 0 13 4 26 9 29 5 3 12 18 15 33 4 16 20 57 35 93
37 86 91 250 91 275 0 11 6 30 14 41 8 11 14 31 14 44 -1 14 6 57 15 95 9 39
20 107 26 150 6 44 15 116 21 160 17 131 15 514 -4 633 -25 164 -89 375 -141
467 -18 33 -47 85 -64 116 -39 73 -233 269 -326 331 -73 49 -173 101 -215 113
-14 4 -29 11 -35 14 -5 4 -30 13 -55 20 -25 7 -63 19 -85 26 -22 7 -62 16 -90
19 -27 4 -59 8 -70 10 -11 2 -40 7 -65 11 -58 10 -268 12 -345 3z m335 -84
c58 -9 121 -20 140 -24 306 -76 444 -151 625 -341 88 -92 107 -120 179 -264
54 -109 110 -287 123 -390 2 -22 11 -86 19 -141 16 -117 18 -247 3 -354 -5
-41 -14 -122 -19 -180 -5 -58 -17 -143 -26 -190 -8 -47 -19 -107 -24 -133 -15
-81 -49 -210 -71 -268 -12 -30 -23 -65 -26 -79 -3 -14 -12 -34 -19 -45 -8 -11
-14 -28 -14 -37 0 -10 -4 -26 -10 -36 -9 -17 -39 -83 -84 -185 -14 -32 -39
-79 -56 -103 -16 -25 -30 -51 -30 -58 0 -8 -7 -19 -15 -26 -8 -7 -15 -17 -15
-22 0 -15 -131 -210 -226 -336 -138 -183 -348 -389 -559 -549 -81 -61 -287
-203 -315 -216 -17 -9 -37 -21 -95 -58 -22 -14 -47 -29 -55 -32 -8 -4 -55 -29
-105 -56 -49 -27 -95 -50 -102 -50 -6 -1 -40 24 -75 54 -60 53 -203 154 -258
183 -14 8 -47 23 -75 33 -27 11 -63 26 -80 33 -16 8 -50 22 -75 31 -25 9 -58
23 -73 31 -16 8 -39 14 -51 14 -12 0 -27 5 -33 11 -6 6 -38 13 -72 16 -54 5
-62 9 -67 29 -4 17 3 35 28 66 46 60 44 56 177 323 156 314 214 447 252 572 5
18 14 35 19 38 6 4 10 14 10 24 0 10 7 32 15 47 8 16 15 36 15 44 0 8 7 24 15
34 8 11 15 32 15 47 0 15 4 30 9 34 5 3 12 20 16 38 4 17 17 64 30 102 12 39
32 108 45 155 12 47 28 105 36 129 8 25 14 55 14 68 0 14 5 34 11 45 6 11 15
44 20 72 10 61 26 144 40 206 10 43 17 95 39 310 29 289 21 936 -15 1123 -22
115 -21 125 18 141 17 8 84 29 147 46 63 18 135 38 160 45 25 7 77 16 116 19
39 4 84 11 100 16 48 14 192 11 304 -6z"/>
<path d="M5481 7985 c-51 -48 -72 -99 -87 -211 -6 -53 16 -119 38 -112 14 5
36 70 48 143 21 126 27 155 33 161 3 3 20 1 39 -5 18 -6 65 -20 103 -31 122
-37 288 -131 283 -160 -3 -14 -30 -22 -113 -36 -16 -3 -52 -11 -80 -19 -27 -8
-86 -22 -130 -30 -153 -29 -179 -43 -140 -75 18 -15 174 -8 240 10 22 7 58 17
80 23 22 6 51 17 65 24 14 7 30 13 36 13 18 0 74 87 74 115 0 20 -17 43 -66
90 -56 53 -83 70 -168 104 -74 30 -116 41 -154 41 -49 0 -57 -3 -101 -45z"/>
</g>
</svg>
